<mxfile host="app.diagrams.net" modified="2023-11-20T20:37:51.994Z" agent="Mozilla/5.0 (Windows NT 10.0; Win64; x64) AppleWebKit/537.36 (KHTML, like Gecko) Chrome/119.0.0.0 Safari/537.36" version="22.1.3" etag="9d2SjEHBVB_ELnkI2igC" type="github">
  <diagram name="Page-1" id="D4y1O6Dfn8FvITw3Nopp">
    <mxGraphModel>
      <root>
        <mxCell id="0" />
        <mxCell id="1" parent="0" />
      </root>
    </mxGraphModel>
  </diagram>
</mxfile>
